<svg xmlns="http://www.w3.org/2000/svg" viewBox="0 0 128 128">
  <path fill="#F7DF1E" d="M1.408 1.408h125.184v125.185H1.408z"/>
  <path d="M88.812 106.3c2.39 3.898 5.506 6.768 11.012 6.768 4.62 0 7.553-2.31 7.553-5.506 0-3.82-3.013-5.166-8.08-7.385l-2.774-1.19c-8.023-3.42-13.36-7.7-13.36-16.75 0-8.334 6.346-14.69 16.27-14.69 7.058 0 12.134 2.462 15.784 8.922l-8.642 5.536c-1.902-3.42-3.956-4.763-7.142-4.763-3.25 0-5.315 2.066-5.315 4.763 0 3.338 2.066 4.684 6.844 6.768l2.774 1.19c9.43 4.03 14.768 8.082 14.768 17.257 0 9.89-7.764 15.275-18.198 15.275-10.2 0-16.74-4.872-19.914-11.25zM50.568 106.3c2.115 3.76 4.03 6.938 8.08 6.938 4.13 0 6.738-1.62 6.738-7.902V66.1h10.406v38.62c0 10.746-6.268 15.64-15.422 15.64-8.268 0-13.08-4.286-15.51-9.568z"/>
</svg>