<svg version="1.1" id="Layer_1" xmlns="http://www.w3.org/2000/svg" xmlns:xlink="http://www.w3.org/1999/xlink" x="0px" y="0px" viewBox="0 0 500 500" style="width: 166px;" xml:space="preserve" data-imageid="office-work-11" imageName="Office Work" class="illustrations_image">
<style type="text/css">
	.st0_office-work-11{fill:#B5E5E1;}
	.st1_office-work-11{opacity:0.32;fill:url(#SVGID_1_);enable-background:new    ;}
	.st2_office-work-11{opacity:0.32;fill:url(#SVGID_00000175315257636645314040000007481757312409236114_);enable-background:new    ;}
	.st3_office-work-11{opacity:0.32;fill:url(#SVGID_00000101102389013626551360000000722073562792029588_);enable-background:new    ;}
	.st4_office-work-11{fill:#4A42A4;}
	.st5_office-work-11{fill:#68E1FD;}
	.st6_office-work-11{opacity:0.19;fill:#4A42A4;enable-background:new    ;}
	.st7_office-work-11{fill:#D64338;}
	.st8_office-work-11{fill:#FF6753;}
	.st9_office-work-11{fill:#297600;}
	.st10_office-work-11{fill:#8CC63F;}
	.st11_office-work-11{fill:#9093D3;}
	.st12_office-work-11{fill:#FFE0CE;}
	.st13_office-work-11{fill:#895851;}
	.st14_office-work-11{opacity:0.15;fill:#4A42A4;enable-background:new    ;}
	.st15_office-work-11{opacity:0.32;fill:url(#SVGID_00000041297510257862212690000014701740182554659716_);enable-background:new    ;}
</style>
<polygon id="Base_office-work-11" class="st0_office-work-11" points="37.8,281.3 292.5,428.2 462.2,328.9 208.1,182.2 "/>
<g id="Shadow_office-work-11">
	
		<linearGradient id="SVGID_1_-office-work-11" gradientUnits="userSpaceOnUse" x1="225.8051" y1="-1910.4127" x2="271.8051" y2="-1990.4427" gradientTransform="matrix(1 0 0 1 0 2273.8401)">
		<stop offset="0" style="stop-color:#4A42A4;stop-opacity:0"/>
		<stop offset="0.99" style="stop-color:#4A42A4"/>
	</linearGradient>
	<polyline class="st1_office-work-11" points="352.1,331.4 241.7,398.6 134.5,334.6 239.4,270.1 &#9;"/>
	
		<linearGradient id="SVGID_00000057130653681603516630000017029869944892432776_-office-work-11" gradientUnits="userSpaceOnUse" x1="161.5899" y1="-2040.7502" x2="195.1499" y2="-2056.3403" gradientTransform="matrix(1 0 0 1 0 2273.8401)">
		<stop offset="0" style="stop-color:#4A42A4;stop-opacity:0"/>
		<stop offset="0.99" style="stop-color:#4A42A4"/>
	</linearGradient>
	
		<polygon style="opacity:0.32;fill:url(#SVGID_00000057130653681603516630000017029869944892432776_);enable-background:new    ;" points="&#10;&#9;&#9;170.9,214.4 92.4,258.1 113.5,269.8 193.4,224.5 205.1,216.9 &#9;"/>
	
		<linearGradient id="SVGID_00000165928391823246354930000016719507335807751096_-office-work-11" gradientUnits="userSpaceOnUse" x1="343.4803" y1="-1902.6495" x2="390.2403" y2="-1941.7697" gradientTransform="matrix(1 0 0 1 0 2273.8401)">
		<stop offset="0" style="stop-color:#4A42A4;stop-opacity:0"/>
		<stop offset="0.99" style="stop-color:#4A42A4"/>
	</linearGradient>
	
		<polyline style="opacity:0.32;fill:url(#SVGID_00000165928391823246354930000016719507335807751096_);enable-background:new    ;" points="&#10;&#9;&#9;422.9,330.2 343,375.5 321.9,363.8 400.4,320.1 &#9;"/>
</g>
<g id="Standing_Lamp_office-work-11">
	<path class="st4_office-work-11" d="M175.3,199c-0.6,0-1.2-0.1-1.7-0.4l-0.3,1.8l28,0.7V199H175.3z"/>
	<path class="st4_office-work-11" d="M173.6,198.7l-0.2,1.7l15.5,8.9v-2.2C183.6,204.6,178.6,201.7,173.6,198.7z"/>
	<path class="st4_office-work-11" d="M189.2,77.8c-0.9,0.1-1.9,0-2.7-0.4l-17.8,137c1.1,0.7,2.2,1.2,3.3,1.9L190,77.7L189.2,77.8z"/>
	<path class="st4_office-work-11" d="M193.3,77.7c-0.6,0.1-1.3,0.1-1.9,0c-0.5,0-1.1,0-1.6,0.1l12,140.5c0.9-0.4,1.8-0.8,2.8-1.2l0.5-0.2h0.1&#10;&#9;&#9;L193.3,77.7z"/>
	<path class="st4_office-work-11" d="M191.4,77.7c-0.7,0-1.4,0-2.1,0.2c-0.3,0-0.6,0-0.8,0l-1.2,148.4l0,0c0.6-0.2,1.3-0.3,1.9-0.1h1.6l1.2-148.4&#10;&#9;&#9;H191.4z"/>
	<path class="st5_office-work-11 targetColor" d="M172,80.1v30.7c0,0,35.3,1,35.3,0V80.1" style="fill: rgb(104, 225, 253);"/>
	<ellipse class="st5_office-work-11 targetColor" cx="189.6" cy="80" rx="17.6" ry="8.2" style="fill: rgb(104, 225, 253);"/>
	<ellipse class="st6_office-work-11" cx="189.6" cy="80" rx="17.6" ry="8.2"/>
	<ellipse class="st5_office-work-11 targetColor" cx="189.6" cy="111.2" rx="17.6" ry="8.2" style="fill: rgb(104, 225, 253);"/>
</g>
<g id="Frame_office-work-11">
	<polygon class="st7_office-work-11" points="418,224 422.4,221.8 417.5,217 &#9;"/>
	<polygon class="st7_office-work-11" points="357.7,128.1 362.1,125.8 363.8,131.6 &#9;"/>
	<polygon class="st7_office-work-11" points="362.1,125.8 422.4,160.6 422.4,221.8 362.1,185.6 &#9;"/>
	<polygon class="st8_office-work-11" points="357.7,128.1 418,162.9 418,224 357.7,187.8 &#9;"/>
	<polygon class="st5_office-work-11 targetColor" points="364.5,138.8 411.2,165.8 411.2,213.2 364.5,185.2 &#9;" style="fill: rgb(104, 225, 253);"/>
	<polygon class="st6_office-work-11" points="374.1,157.4 374,158.8 374,179.5 398.5,193 398.5,171.5 &#9;"/>
</g>
<g id="Plant_office-work-11">
	<polyline class="st5_office-work-11 targetColor" points="391.8,307.7 391.8,327 422.9,327 422.9,307.7 &#9;" style="fill: rgb(104, 225, 253);"/>
	<ellipse class="st5_office-work-11 targetColor" cx="407.3" cy="307.8" rx="15.5" ry="7.6" style="fill: rgb(104, 225, 253);"/>
	<ellipse class="st6_office-work-11" cx="407.3" cy="307.8" rx="15.5" ry="7.6"/>
	<ellipse class="st5_office-work-11 targetColor" cx="407.3" cy="327.7" rx="15.5" ry="7.6" style="fill: rgb(104, 225, 253);"/>
	<path class="st9_office-work-11" d="M424.8,263.1c-3.3-1.4-7.8-5.8-11.8-5.7c-1.3,3.8-2.1,7.8-2.4,11.8c-0.8,6.5-0.9,13.1-0.4,19.7&#10;&#9;&#9;c0.1,1.5,0.2,2.9,0.4,4.4c0,0.4,0.2,0.9,0.4,1.2v15.2c0,0.3,0.2,0.5,0.5,0.5s0.5-0.2,0.5-0.5v-14.6c1.6-0.5,3-1.2,4.5-2&#10;&#9;&#9;c2.9-1.8,5.1-4.6,6.3-7.9c2.5-7,0.9-14.8,3.3-21.7C425.4,263.3,425,263.2,424.8,263.1z"/>
	<path class="st10_office-work-11" d="M418,251.6c-1.9,1.1-3.4,2.7-4.4,4.5c-0.3,0.4-0.5,0.9-0.7,1.4l-0.1,0.3l0,0c-0.3,0.8-0.6,1.6-0.8,2.4&#10;&#9;&#9;c0.4-0.6,1-1.1,1.7-1.3c0.8-0.4,1.7-0.4,2.6-0.2c0.8,0.3,1.6,0.7,2.4,1.3c1.1,0.7,2.2,1.4,3.3,2.1c5.1,3.3,12,3.6,16-1.2&#10;&#9;&#9;c0-0.2,0.1-0.4,0.1-0.6C438.6,257.1,429.4,245,418,251.6z"/>
	<path class="st9_office-work-11" d="M435.6,262.9l0.6-0.4c0-0.1,0-0.3-0.1-0.4c-3.1-3.2-6.5-6.3-10.7-7.9c-3-1.2-6.3-1.5-9.6-0.9&#10;&#9;&#9;c-0.4,0.4-0.7,0.8-1,1.2c3.7-1,7.5-0.6,11,0.9c3.6,1.8,6.9,4.3,9.6,7.4L435.6,262.9z"/>
	<path class="st9_office-work-11" d="M383.4,269.9c-4.6,2.4-7.4,7.3-7,12.5c0.4,9.2,15.5,0.2,19.5-7.5s4.6,3.3,4.6,3.3"/>
	<path class="st10_office-work-11" d="M397,266.7c-2.8-0.1-5.7,0.3-8.4,1.2c-1.8,0.4-3.6,1.1-5.2,2c0.9,0.6,1.9,1.2,3,1.6c2,0.6,3.7,1.8,4.9,3.5&#10;&#9;&#9;c0.3,0.4,0.4,0.9,0.6,1.4c0.9,3,0.1,6.7,1.4,9.7s3.8,5.7,7.4,5.9c4.2,0.3,6.2-3.8,7-7.4s2-8.4,0.6-12&#10;&#9;&#9;C406.8,268.4,401,266.9,397,266.7z"/>
	<path class="st9_office-work-11" d="M402.6,281c-1.8-5.8-5.6-11.2-11.1-13.8h-0.2l-0.3,0.1l-1,0.3c6.5,2.4,10.5,8.8,12.2,15.3&#10;&#9;&#9;c2.1,8.3,1.4,17.3,1.4,25.9c0,0.2,0.2,0.4,0.5,0.4c0.2,0,0.4-0.2,0.4-0.4C404.5,299.6,405.4,289.8,402.6,281z"/>
</g>
<g id="Cupboard_office-work-11">
	<polyline class="st4_office-work-11" points="162.7,194.6 162.7,249.8 119.9,274.5 85.1,253.8 85.1,202.5 &#9;"/>
	<polyline class="st11_office-work-11" points="85.1,199.6 85.1,204.6 88.4,205.6 90.6,202.2 &#9;"/>
	<path class="st11_office-work-11" d="M127.5,178.7l35.2,20.8l-44,25.4c-1.3,0.8-33.6-20.4-33.6-20.4L127.5,178.7z"/>
	<polygon class="st11_office-work-11" points="156.5,210.2 156.5,221.6 124.5,239.9 124.5,228.7 &#9;"/>
	<polygon class="st11_office-work-11" points="157,227.2 157,238.7 124.9,256.9 124.9,245.7 &#9;"/>
	
		<ellipse transform="matrix(9.497701e-02 -0.9955 0.9955 9.497701e-02 -94.9493 344.4593)" class="st12_office-work-11" cx="142" cy="224.4" rx="2" ry="1.4"/>
	
		<ellipse transform="matrix(9.497701e-02 -0.9955 0.9955 9.497701e-02 -110.1595 360.6693)" class="st12_office-work-11" cx="143.3" cy="240.9" rx="2" ry="1.4"/>
	<polyline class="st4_office-work-11" points="115.4,221.8 115.4,277 72.7,301.7 37.9,281 37.9,229.7 &#9;"/>
	<polyline class="st11_office-work-11" points="37.9,226.9 37.9,231.8 41.2,232.8 43.4,229.5 &#9;"/>
	<path class="st11_office-work-11" d="M80.3,205.9l35.2,20.9l-44,25.4c-1.3,0.8-33.6-20.4-33.6-20.4L80.3,205.9z"/>
	<polyline class="st11_office-work-11" points="115.4,226.8 115.4,221.8 109.1,218.7 109.9,227.5 &#9;"/>
	<path class="st11_office-work-11" d="M80.3,201l35.2,20.8l-44,25.4c-1.3,0.8-33.6-20.4-33.6-20.4L80.3,201z"/>
	<polygon class="st11_office-work-11" points="109.3,237.4 109.3,248.8 77.3,267.1 77.3,255.9 &#9;"/>
	<polygon class="st11_office-work-11" points="109.7,254.5 109.7,265.9 77.7,284.2 77.7,273 &#9;"/>
	
		<ellipse transform="matrix(9.497701e-02 -0.9955 0.9955 9.497701e-02 -164.8011 322.0694)" class="st12_office-work-11" cx="94.7" cy="251.7" rx="2" ry="1.4"/>
	
		<ellipse transform="matrix(9.497701e-02 -0.9955 0.9955 9.497701e-02 -179.9816 338.2922)" class="st12_office-work-11" cx="96.1" cy="268.1" rx="2" ry="1.4"/>
	<polyline class="st11_office-work-11" points="162.7,199.6 162.7,194.6 156.3,191.5 157.1,200.3 &#9;"/>
	<path class="st11_office-work-11" d="M127.5,173.8l35.2,20.8l-44,25.4c-1.3,0.8-33.6-20.4-33.6-20.4L127.5,173.8z"/>
</g>
<g id="Character_and_Laptop_office-work-11">
	<polyline class="st4_office-work-11" points="309.1,296.5 309.1,346.4 312.8,346.4 313.5,295.2 &#9;"/>
	<polyline class="st4_office-work-11" points="330.1,277.3 337.5,331.6 333.8,331.6 326,279.3 &#9;"/>
	<path class="st4_office-work-11" d="M255.4,315.2c0,0-3.4,11.3-4.2,12.5s-12.1,8.6-11.9,10.9s4.4,3.2,7.1,3.1s18-6.6,18.9-8.4s1-18,1-18&#10;&#9;&#9;L255.4,315.2z"/>
	<path class="st4_office-work-11" d="M273.6,328.5c0,0-3.4,11.3-4.2,12.5s-12,8.6-11.9,10.9s4.5,3.2,7.1,3.1s18-6.6,18.9-8.4s1-18,1-18L273.6,328.5&#10;&#9;&#9;z"/>
	<path class="st4_office-work-11" d="M332.1,225.7c-1,2.8-6.5,44.4-6.5,44.4l-5.6-1.9l7.2-42.7"/>
	<polyline class="st11_office-work-11" points="330.1,277.3 330.2,270.6 324.2,272.6 326,279.3 &#9;"/>
	<path class="st4_office-work-11" d="M316.6,266.9c0,0,14.9,5.7,13.4,11.4s-13.4,19.4-21,18.2s-16.9-7.8-16.9-7.8"/>
	<path class="st11_office-work-11" d="M316.6,260.1c0,0,14.9,5.7,13.4,11.4s-13.4,19.4-21,18.2s-16.9-7.8-16.9-7.8"/>
	<path class="st11_office-work-11" d="M322.6,207.8c0,0,14.4,3.6,15.9,11.9s1.9,23.6-18.6,17.6S309.1,216,309.1,216"/>
	<path class="st13_office-work-11" d="M303.3,225.5c0,0,5.1,21.4,1.3,32.8s-25.2,20.6-25.2,20.6l-9,46c-12,3.8-22.3-2.6-22.3-2.6s2.5-40.6,6.3-50.9&#10;&#9;&#9;s33.3-30.5,33.3-30.5"/>
	<path class="st13_office-work-11" d="M304.2,252.6c0,0-29.5,20.2-33.3,30.5s-6.3,50.9-6.3,50.9s10.3,6.4,22.3,2.6l9-46c0,0,15.4-4.4,19.1-15.8&#10;&#9;&#9;s2.2-28.8,2.2-28.8"/>
	<path class="st10_office-work-11" d="M315.9,253.1c5-12.2,7.2-44,4.1-47.9c-6.5-7.9-20.1-7-20.1-7s-7.9-4.7-14.5,0.9c-4.9,4.2-1.4,29.8,0,46&#10;&#9;&#9;C294,253.1,303.6,255.3,315.9,253.1z"/>
	<path class="st13_office-work-11" d="M294.8,256.7c-5.3,5.3-11,10.4-15.9,16c-4.3,4.9-6,11.1-7.6,17.3c-3.9,14.4-5.6,29.2-7.3,43.9&#10;&#9;&#9;c-0.1,0.9,1.3,0.9,1.4,0c1.6-14.2,3.3-28.4,7-42.3c1.8-6.8,3.5-13.5,8.4-18.8s10.1-10.1,15.1-15.2c0.3-0.3,0.3-0.7,0-1&#10;&#9;&#9;S295.1,256.4,294.8,256.7L294.8,256.7z"/>
	<path class="st5_office-work-11 targetColor" d="M353,291.8l2.8-1.5l-125.9-72.1l-81.9,46.4l1.1,0.6v61.3c0.1,0.3,0.4,0.6,0.7,0.5c0.3,0,0.5-0.2,0.5-0.5V266&#10;&#9;&#9;l121.1,70.7l0.3-0.2v44.1c0.1,0.3,0.4,0.6,0.7,0.5c0.3,0,0.5-0.2,0.5-0.5v-44.8l79.1-43.6l0,0v39c0.1,0.3,0.4,0.6,0.7,0.5&#10;&#9;&#9;c0.3,0,0.5-0.2,0.5-0.5v-39C353.3,292.1,353.2,291.9,353,291.8z" style="fill: rgb(104, 225, 253);"/>
	<path class="st14_office-work-11" d="M353,291.8l2.8-1.5l-125.9-72.1l-81.9,46.4l1.1,0.6v61.3c0.1,0.3,0.4,0.6,0.7,0.5c0.3,0,0.5-0.2,0.5-0.5V266&#10;&#9;&#9;l121.1,70.7l0.3-0.2v44.1c0.1,0.3,0.4,0.6,0.7,0.5c0.3,0,0.5-0.2,0.5-0.5v-44.8l79.1-43.6l0,0v39c0.1,0.3,0.4,0.6,0.7,0.5&#10;&#9;&#9;c0.3,0,0.5-0.2,0.5-0.5v-39C353.3,292.1,353.2,291.9,353,291.8z"/>
	
		<linearGradient id="SVGID_00000119075657686213015260000016257320895278300858_-office-work-11" gradientUnits="userSpaceOnUse" x1="220.1205" y1="-1982.318" x2="249.8905" y2="-2017.8978" gradientTransform="matrix(1 0 0 1 0 2273.8401)">
		<stop offset="0" style="stop-color:#4A42A4;stop-opacity:0"/>
		<stop offset="0.99" style="stop-color:#4A42A4"/>
	</linearGradient>
	<path style="opacity:0.32;fill:url(#SVGID_00000119075657686213015260000016257320895278300858_);enable-background:new    ;" d="&#10;&#9;&#9;M226.7,262.4l-39.5,22c6.6,4.2,33.2,18.5,39.6,23l40.9-26.2l-6.7-16.4L226.7,262.4z"/>
	<polyline class="st4_office-work-11" points="259.4,286 288.2,269.3 250.6,247.7 221.2,262.9 &#9;"/>
	<path class="st0_office-work-11" d="M251.9,253c0,0,7.6,33.5,7.4,33.1s-37.4-20.4-37.5-21.2s-9.8-34.7-9.8-34.7L251.9,253z"/>
	<polygon class="st12_office-work-11" points="241.1,246.8 248.8,242.1 258,249.8 251.1,252.7 &#9;"/>
	<path class="st10_office-work-11" d="M245.3,241.5c0,0,10.3,3.6,9.4,13.1c0,0,16-6.7,19.6-10.9s11.1-13.4,11.1-13.4v-31.1c0,0-19.4,30.1-23.5,33.7&#10;&#9;&#9;C258.4,235.7,245.3,241.5,245.3,241.5z"/>
	<path class="st12_office-work-11" d="M298.3,194c0,2.6,0,5.2-0.1,7.9c0.5,1.2,1.1,2,2.1,1.9c3.1-0.3,6.8-5,6.8-5l0.5-7.3L298.3,194z"/>
	<path class="st13_office-work-11" d="M313.5,175.9c-2-4.2-5.8-5-9.8-4.2c-0.9-0.7-1.9-1.1-3-1.4c-3.5-0.9-7.2,0.3-9.5,3.1c-1.1-0.1-2.2,0-3.2,0.4&#10;&#9;&#9;c-3,1.3-3.3,4.4-2.6,7.2c0,0.1,0,0.2,0.1,0.3c0.3,4.9,5.1,7,5.1,7l15.5,7.7c1.7-0.9,3.1-2.2,4.1-3.9c0.3-0.6,0.5-1.3,0.6-2&#10;&#9;&#9;c0.1-0.1,0.2-0.2,0.3-0.3C314.2,186,315.6,180.5,313.5,175.9z"/>
	<path class="st12_office-work-11" d="M290.3,184.4c0.4,1.6,3.2,17.3,10.2,16s7.5-11.8,7.5-11.8s-6.4-1.7-6.9-4.2s-0.2-3.5-3.4-4.1&#10;&#9;&#9;S289.7,181.7,290.3,184.4z"/>
	<polygon class="st9_office-work-11" points="284.1,231.8 283.1,216.5 278.5,238.6 &#9;"/>
	<path class="st12_office-work-11" d="M284.7,257.9c-0.6,0.1-1.2,0.3-1.8,0.5c-1.7,0.8-3.5,1.4-5.2,2.2c-2.8,1.6-5,4-6.5,6.8&#10;&#9;&#9;c-0.3,0.8-1.8,3.4-1,4.2s2.4,0,2.4,0s-0.1,1.5,0.5,1.9s2.2-0.9,2.2-0.9s0.7,1.9,1.8,1.4s2.8-3.1,2.8-3.1s-0.2,2.1,0.7,2.1&#10;&#9;&#9;s4.7-5.2,4.7-5.2l8-4.2c0,0-2.4-2.6-2.6-2.8c-1.1-1.1-2.4-2-3.8-2.6C286.2,257.9,285.4,257.8,284.7,257.9z"/>
	<path class="st13_office-work-11" d="M283.3,264.7c-1.8,2-3.2,4.3-4,6.9c-0.1,0.3,0.4,0.5,0.5,0.1c0.8-2.5,2.1-4.7,3.9-6.6&#10;&#9;&#9;C283.9,264.8,283.5,264.5,283.3,264.7z"/>
	<path class="st13_office-work-11" d="M280.9,263.1c-2.9,2.6-5,6.1-5.9,9.9c0,0.1,0,0.3,0.2,0.3c0.1,0,0.3,0,0.3-0.2l0,0c0.9-3.7,2.9-7.1,5.8-9.7&#10;&#9;&#9;C281.5,263.3,281.2,262.9,280.9,263.1z"/>
	<path class="st13_office-work-11" d="M278.5,262.6c-2.9,2.5-5,5.6-6.2,9.2c-0.1,0.3,0.4,0.5,0.5,0.1c1.2-3.5,3.3-6.6,6.1-9&#10;&#9;&#9;C279.1,262.7,278.8,262.4,278.5,262.6z"/>
	<path class="st10_office-work-11" d="M320.5,231.4c0,0-3,18.9-6.9,23.2c-3.9,4.3-21.4,12.1-21.4,12.1s-4.4-7.7-9-9.5c0,0,17.8-10,18.2-11.9"/>
	<path class="st9_office-work-11" d="M305.8,218.8c-0.3,4.1-0.7,8.1-1.3,12.1c-0.3,3.6-1,7.2-2,10.7c-1.3,3.7-6.2,5.9-9.4,8s-6.7,4.2-10.1,6.3&#10;&#9;&#9;c-0.8,0.5,0,1.7,0.7,1.2c4-2.4,7.9-4.9,11.7-7.4c2.6-1.7,6.6-3.5,8-6.5c1.5-3.3,1.8-7.7,2.3-11.2c0.7-4.4,1.1-8.8,1.4-13.2&#10;&#9;&#9;C307.3,217.9,305.9,217.9,305.8,218.8z"/>
</g>
</svg>