<svg xmlns="http://www.w3.org/2000/svg" viewBox="0 0 128 128">
  <circle fill="#61DAFB" cx="64" cy="64" r="11.4"/>
  <path fill="none" stroke="#61DAFB" stroke-width="8" d="M64 22c17.673 0 32 28.654 32 42s-14.327 42-32 42S32 77.346 32 64s14.327-42 32-42z"/>
  <path fill="none" stroke="#61DAFB" stroke-width="8" transform="rotate(60 64 64)" d="M64 22c17.673 0 32 28.654 32 42s-14.327 42-32 42S32 77.346 32 64s14.327-42 32-42z"/>
  <path fill="none" stroke="#61DAFB" stroke-width="8" transform="rotate(120 64 64)" d="M64 22c17.673 0 32 28.654 32 42s-14.327 42-32 42S32 77.346 32 64s14.327-42 32-42z"/>
</svg>